<?xml version="1.0" encoding="utf-8"?>
<svg viewBox="0 0 54.59 54.069" xmlns="http://www.w3.org/2000/svg" xmlns:xlink="http://www.w3.org/1999/xlink">
  <defs>
    <linearGradient id="linearGradient4160" x1="93.761749" y1="123.76546" x2="98.135475" y2="125.5423" gradientUnits="userSpaceOnUse" gradientTransform="matrix(1, 0, 0, 1, -68.955017, -99.302643)" xlink:href="#linearGradient4154"/>
    <linearGradient id="linearGradient4154">
      <stop style="stop-color:#9d9d9d;stop-opacity:1;" offset="0" id="stop4156"/>
      <stop style="stop-color:#ffffff;stop-opacity:1" offset="1" id="stop4158"/>
    </linearGradient>
    <linearGradient id="linearGradient4170" x1="100.32234" y1="125.81564" x2="96.768692" y2="124.44886" gradientUnits="userSpaceOnUse" gradientTransform="matrix(1, 0, 0, 1, -68.955017, -99.302643)" xlink:href="#linearGradient4164"/>
    <linearGradient id="linearGradient4164">
      <stop style="stop-color:#d1d1d1;stop-opacity:1;" offset="0" id="stop4166"/>
      <stop style="stop-color:#d1d1d1;stop-opacity:0;" offset="1" id="stop4168"/>
    </linearGradient>
    <linearGradient id="linearGradient4186" x1="81.763031" y1="115.66328" x2="92.974037" y2="114.50352" gradientUnits="userSpaceOnUse" gradientTransform="matrix(1, 0, 0, 1, -68.955017, -99.302643)" xlink:href="#linearGradient4180"/>
    <linearGradient id="linearGradient4180">
      <stop style="stop-color:#707070;stop-opacity:1;" offset="0" id="stop4182"/>
      <stop style="stop-color:#ffffff;stop-opacity:1" offset="1" id="stop4184"/>
    </linearGradient>
    <linearGradient id="linearGradient4198" gradientUnits="userSpaceOnUse" x1="91.0411" y1="107.54497" x2="65.333107" y2="111.21754" gradientTransform="matrix(1, 0, 0, 1, -68.955017, -99.302643)" xlink:href="#linearGradient4188"/>
    <linearGradient id="linearGradient4188">
      <stop style="stop-color:#9e9e9e;stop-opacity:1;" offset="0" id="stop4190"/>
      <stop style="stop-color:#9e9e9e;stop-opacity:0;" offset="1" id="stop4192"/>
    </linearGradient>
    <linearGradient id="linearGradient4202" gradientUnits="userSpaceOnUse" x1="91.0411" y1="107.54497" x2="65.333107" y2="111.21754" gradientTransform="matrix(1, 0, 0, 1, -68.955017, -99.302643)" xlink:href="#linearGradient4188"/>
    <linearGradient id="linearGradient4194" x1="91.0411" y1="107.54497" x2="65.333107" y2="111.21754" gradientUnits="userSpaceOnUse" gradientTransform="matrix(1, 0, 0, 1, -68.955017, -99.302643)" xlink:href="#linearGradient4188"/>
    <linearGradient id="linearGradient4210" x1="105.92468" y1="108.51144" x2="115.97593" y2="108.12485" gradientUnits="userSpaceOnUse" gradientTransform="matrix(1, 0, 0, 1, -68.955017, -99.302643)" xlink:href="#linearGradient4204"/>
    <linearGradient id="linearGradient4204">
      <stop style="stop-color:#b9b9b9;stop-opacity:1;" offset="0" id="stop4206"/>
      <stop style="stop-color:#ffffff;stop-opacity:1" offset="1" id="stop4208"/>
    </linearGradient>
    <linearGradient id="linearGradient4220" x1="112.30335" y1="135.95908" x2="107.47102" y2="136.92554" gradientUnits="userSpaceOnUse" gradientTransform="matrix(1, 0, 0, 1, -68.955017, -99.302643)" xlink:href="#linearGradient4214"/>
    <linearGradient id="linearGradient4214">
      <stop style="stop-color:#d1d1d1;stop-opacity:1" offset="0" id="stop4216"/>
      <stop style="stop-color:#ffffff;stop-opacity:1" offset="1" id="stop4218"/>
    </linearGradient>
    <linearGradient id="linearGradient4228" x1="99.739296" y1="143.88409" x2="106.89114" y2="145.23714" gradientUnits="userSpaceOnUse" gradientTransform="matrix(1, 0, 0, 1, -68.955017, -99.302643)" xlink:href="#linearGradient4222"/>
    <linearGradient id="linearGradient4222">
      <stop style="stop-color:#bfbfbf;stop-opacity:1;" offset="0" id="stop4224"/>
      <stop style="stop-color:#ffffff;stop-opacity:1" offset="1" id="stop4226"/>
    </linearGradient>
  </defs>
  <path style="color:#000000;fill:url(#linearGradient4160);fill-opacity:1;fill-rule:nonzero;stroke:none;stroke-width:1;marker:none;visibility:visible;display:inline;overflow:visible;enable-background:accumulate" d="M 25.337 15.001 C 23.649 15.405 21.852 15.588 20.258 16.261 C 18.344 19.185 16.298 22.08 14.729 25.202 C 14.77 26.406 15.637 27.482 15.908 28.659 C 16.8 31.058 17.508 33.539 18.394 35.928 C 21.196 37.213 23.923 38.788 26.801 39.843 C 29.713 39.1 32.602 38.22 35.469 37.332 C 37.31 34.504 39.362 31.787 41.03 28.866 C 40.177 25.4 39.536 21.844 38.487 18.446 C 35.737 16.91 32.917 15.454 30.107 14.045 C 28.517 14.363 26.927 14.682 25.337 15.001 Z" id="path4108" transform="matrix(1, 0, 0, 1, 5.684341886080802e-14, 5.694056337546272e-14)"/>
  <path id="path4162" d="M 25.337 15.001 C 23.649 15.405 21.852 15.588 20.258 16.261 C 18.344 19.185 16.298 22.08 14.729 25.202 C 14.77 26.406 15.637 27.482 15.908 28.659 C 16.8 31.058 17.508 33.539 18.394 35.928 C 21.196 37.213 23.923 38.788 26.801 39.843 C 29.713 39.1 32.602 38.22 35.469 37.332 C 37.31 34.504 39.362 31.787 41.03 28.866 C 40.177 25.4 39.536 21.844 38.487 18.446 C 35.737 16.91 32.917 15.454 30.107 14.045 C 28.517 14.363 26.927 14.682 25.337 15.001 Z" style="color:#000000;fill:url(#linearGradient4170);fill-opacity:1;fill-rule:nonzero;stroke:none;stroke-width:1;marker:none;visibility:visible;display:inline;overflow:visible;enable-background:accumulate" transform="matrix(1, 0, 0, 1, 5.684341886080802e-14, 5.694056337546272e-14)"/>
  <path style="color:#000000;fill:#ffffff;fill-opacity:1;fill-rule:nonzero;stroke:none;stroke-width:1;marker:none;visibility:visible;display:inline;overflow:visible;enable-background:accumulate" d="M 50.115 9.574 C 46.517 12.317 42.953 15.159 39.472 18.025 C 39.472 20.169 40.304 22.279 40.671 24.396 C 41.098 25.971 41.293 27.691 41.864 29.176 C 45.835 29.287 49.806 29.404 53.776 29.562 C 53.934 28.456 53.383 27.145 53.292 25.963 C 52.287 20.51 51.553 14.982 50.272 9.593 C 50.229 9.554 50.164 9.543 50.115 9.574 Z" id="path4212" transform="matrix(1, 0, 0, 1, 5.684341886080802e-14, 5.694056337546272e-14)"/>
  <path style="color:#000000;fill:#707070;fill-opacity:1;fill-rule:nonzero;stroke:none;stroke-width:1;marker:none;visibility:visible;display:inline;overflow:visible;enable-background:accumulate" d="M 1.045 24.674 C 0.446 24.885 1.232 25.703 1.221 26.1 C 3.547 32.326 5.807 38.622 8.325 44.746 C 8.942 44.832 9.308 43.831 9.835 43.564 C 12.434 41.009 15.157 38.506 17.63 35.869 C 16.465 32.477 15.533 28.978 13.992 25.737 C 9.73 25.405 5.388 25.155 1.115 24.663 L 1.045 24.674 Z" id="path4092" transform="matrix(1, 0, 0, 1, 5.684341886080802e-14, 5.694056337546272e-14)"/>
  <path style="color:#000000;fill:url(#linearGradient4186);fill-opacity:1;fill-rule:nonzero;stroke:none;stroke-width:1;marker:none;visibility:visible;display:inline;overflow:visible;enable-background:accumulate" d="M 11.065 5.28 C 7.629 11.377 4.266 17.541 1.029 23.75 C 1.474 24.226 2.451 23.977 3.094 24.16 C 6.695 24.428 10.326 25.117 13.928 24.866 C 15.769 21.866 17.864 18.966 19.467 15.855 C 17.034 12.279 14.248 8.925 11.531 5.55 C 11.407 5.456 11.266 5.128 11.065 5.28 Z" id="path4094" transform="matrix(1, 0, 0, 1, 5.684341886080802e-14, 5.694056337546272e-14)"/>
  <path id="path4196" d="M 32.628 0.585 C 25.757 1.784 18.849 2.949 12.027 4.329 C 11.991 5.136 12.904 5.753 13.251 6.448 C 15.55 9.408 17.738 12.496 20.258 15.257 C 23.55 14.637 26.9 14.125 30.118 13.185 C 30.756 12.635 30.51 11.484 30.839 10.733 C 31.511 7.392 32.238 4.058 32.82 0.702 C 32.723 0.762 32.731 0.51 32.628 0.585 Z" style="color:#000000;fill:url(#linearGradient4198);fill-opacity:1;fill-rule:nonzero;stroke:none;stroke-width:1;marker:none;visibility:visible;display:inline;overflow:visible;enable-background:accumulate" transform="matrix(1, 0, 0, 1, 5.684341886080802e-14, 5.694056337546272e-14)"/>
  <path id="path4200" d="M 32.628 0.585 C 25.757 1.784 18.849 2.949 12.027 4.329 C 11.991 5.136 12.904 5.753 13.251 6.448 C 15.55 9.408 17.738 12.496 20.258 15.257 C 23.55 14.637 26.9 14.125 30.118 13.185 C 30.756 12.635 30.51 11.484 30.839 10.733 C 31.511 7.392 32.238 4.058 32.82 0.702 C 32.723 0.762 32.731 0.51 32.628 0.585 Z" style="color:#000000;fill:url(#linearGradient4202);fill-opacity:1;fill-rule:nonzero;stroke:none;stroke-width:1;marker:none;visibility:visible;display:inline;overflow:visible;enable-background:accumulate" transform="matrix(1, 0, 0, 1, 5.684341886080802e-14, 5.694056337546272e-14)"/>
  <path style="color:#000000;fill:url(#linearGradient4194);fill-opacity:1;fill-rule:nonzero;stroke:none;stroke-width:1;marker:none;visibility:visible;display:inline;overflow:visible;enable-background:accumulate" d="M 32.628 0.585 C 25.757 1.784 18.849 2.949 12.027 4.329 C 11.991 5.136 12.904 5.753 13.251 6.448 C 15.55 9.408 17.738 12.496 20.258 15.257 C 23.55 14.637 26.9 14.125 30.118 13.185 C 30.756 12.635 30.51 11.484 30.839 10.733 C 31.511 7.392 32.238 4.058 32.82 0.702 C 32.723 0.762 32.731 0.51 32.628 0.585 Z" id="path4096" transform="matrix(1, 0, 0, 1, 5.684341886080802e-14, 5.694056337546272e-14)"/>
  <path style="color:#000000;fill:url(#linearGradient4210);fill-opacity:1;fill-rule:nonzero;stroke:none;stroke-width:1;marker:none;visibility:visible;display:inline;overflow:visible;enable-background:accumulate" d="M 33.755 0.761 C 33.231 1.35 33.364 2.422 33.075 3.173 C 32.398 6.576 31.545 9.973 31.036 13.393 C 31.742 14.359 33.09 14.67 34.064 15.331 C 35.605 16.069 37.099 17.079 38.712 17.58 C 42.269 14.895 45.834 12.165 49.186 9.227 C 49.822 8.555 48.456 8.334 48.103 8.04 C 43.429 5.637 38.864 2.994 34.086 0.809 C 33.979 0.783 33.867 0.743 33.755 0.761 Z" id="path4098" transform="matrix(1, 0, 0, 1, 5.684341886080802e-14, 5.694056337546272e-14)"/>
  <path style="color:#000000;fill:#000000;fill-opacity:0;fill-rule:nonzero;stroke:none;stroke-width:1;marker:none;visibility:visible;display:inline;overflow:visible;enable-background:accumulate" d="M 50.227 9.478 C 46.612 12.286 42.921 15.062 39.534 18.147 C 38.988 18.72 39.763 19.569 39.721 20.235 C 40.456 23.178 40.977 26.224 41.858 29.101 C 45.802 29.409 49.774 29.359 53.731 29.449 C 53.92 28.52 53.411 27.396 53.346 26.395 C 52.372 20.782 51.443 15.161 50.414 9.558 C 50.354 9.795 50.289 9.423 50.227 9.478 Z" id="path4100" transform="matrix(1, 0, 0, 1, 5.684341886080802e-14, 5.694056337546272e-14)"/>
  <path style="color:#000000;fill:url(#linearGradient4220);fill-opacity:1;fill-rule:nonzero;stroke:none;stroke-width:1;marker:none;visibility:visible;display:inline;overflow:visible;enable-background:accumulate" d="M 41.211 29.94 C 39.6 32.504 37.747 34.985 36.313 37.621 C 38.934 40.988 41.78 44.213 44.635 47.379 C 45.307 46.92 45.538 45.861 46.036 45.185 C 48.712 40.282 51.491 35.396 53.966 30.394 C 53.204 29.988 52.076 30.274 51.194 30.116 C 47.873 30.03 44.515 29.814 41.211 29.94 Z" id="path4102" transform="matrix(1, 0, 0, 1, 5.684341886080802e-14, 5.694056337546272e-14)"/>
  <path style="color:#000000;fill:#9e9e9e;fill-opacity:1;fill-rule:nonzero;stroke:none;stroke-width:1;marker:none;visibility:visible;display:inline;overflow:visible;enable-background:accumulate" d="M 17.929 36.595 C 14.99 39.608 11.782 42.386 9.068 45.595 C 8.92 46.221 10.121 46.16 10.456 46.509 C 15.581 48.752 20.679 51.103 25.855 53.196 C 26.432 52.751 26.037 51.712 26.176 51.059 C 26.161 47.547 26.414 43.985 26.331 40.505 C 23.527 39.234 20.788 37.648 17.929 36.595 Z" id="path4106" transform="matrix(1, 0, 0, 1, 5.684341886080802e-14, 5.694056337546272e-14)"/>
  <path style="fill: none; stroke: rgb(0, 0, 0); stroke-width: 1; stroke-linecap: butt; stroke-linejoin: miter; stroke-miterlimit: 4; stroke-opacity: 1; stroke-dasharray: none; display: inline;" d="M 7.95 45.941 L 18.02 36.046 C 18.02 36.046 14.663 24.914 13.956 25.268 C 13.25 25.621 0 24.207 0 24.207" id="path3485" transform="matrix(1, 0, 0, 1, 5.684341886080802e-14, 5.694056337546272e-14)"/>
  <path style="fill: none; stroke: rgb(0, 0, 0); stroke-width: 1; stroke-linecap: butt; stroke-linejoin: miter; stroke-miterlimit: 4; stroke-opacity: 1; stroke-dasharray: none; display: inline;" d="M 11.306 4.064 L 33.566 0 L 50.703 9.012 L 54.413 30.568 L 44.873 48.061 L 26.853 54.069 L 8.303 45.941 L 0.176 24.384 L 11.306 4.064 Z" id="path3471" transform="matrix(1, 0, 0, 1, 5.684341886080802e-14, 5.694056337546272e-14)"/>
  <path style="fill: none; stroke: rgb(0, 0, 0); stroke-width: 1; stroke-linecap: butt; stroke-linejoin: miter; stroke-miterlimit: 4; stroke-opacity: 1; stroke-dasharray: none; display: inline;" d="M 50.173 9.012 L 38.866 18.023 L 41.516 29.508 L 54.59 29.862" id="path3481" transform="matrix(1, 0, 0, 1, 5.684341886080802e-14, 5.694056337546272e-14)"/>
  <path style="fill: none; stroke: rgb(0, 0, 0); stroke-width: 1; stroke-linecap: butt; stroke-linejoin: miter; stroke-miterlimit: 4; stroke-opacity: 1; stroke-dasharray: none; display: inline;" d="M 10.953 4.064 L 19.963 15.726 L 30.563 13.606 L 33.39 0" id="path3479" transform="matrix(1, 0, 0, 1, 5.684341886080802e-14, 5.694056337546272e-14)"/>
  <path style="fill: none; stroke: rgb(0, 0, 0); stroke-width: 1; stroke-linecap: butt; stroke-linejoin: miter; stroke-miterlimit: 4; stroke-opacity: 1; stroke-dasharray: none; display: inline;" d="M 13.956 25.444 L 20.14 15.726" id="path3487" transform="matrix(1, 0, 0, 1, 5.684341886080802e-14, 5.694056337546272e-14)"/>
  <path style="fill: none; stroke: rgb(0, 0, 0); stroke-width: 1; stroke-linecap: butt; stroke-linejoin: miter; stroke-miterlimit: 4; stroke-opacity: 1; stroke-dasharray: none; display: inline;" d="M 30.386 13.783 L 38.866 18.2" id="path3489" transform="matrix(1, 0, 0, 1, 5.684341886080802e-14, 5.694056337546272e-14)"/>
  <path style="fill: none; stroke: rgb(0, 0, 0); stroke-width: 1; stroke-linecap: butt; stroke-linejoin: miter; stroke-miterlimit: 4; stroke-opacity: 1; stroke-dasharray: none; display: inline;" d="M 41.34 29.155 L 35.51 37.99" id="path3491" transform="matrix(1, 0, 0, 1, 5.684341886080802e-14, 5.694056337546272e-14)"/>
  <path style="fill: none; stroke: rgb(0, 0, 0); stroke-width: 1; stroke-linecap: butt; stroke-linejoin: miter; stroke-miterlimit: 4; stroke-opacity: 1; stroke-dasharray: none; display: inline;" d="M 18.196 36.223 L 26.676 40.287" id="path3493" transform="matrix(1, 0, 0, 1, 5.684341886080802e-14, 5.694056337546272e-14)"/>
  <path style="fill: none; stroke: rgb(0, 0, 0); stroke-width: 1; stroke-linecap: butt; stroke-linejoin: miter; stroke-miterlimit: 4; stroke-opacity: 1; stroke-dasharray: none; display: inline;" d="M 44.696 48.061 L 35.686 37.636 L 26.676 40.287 L 26.5 53.921" id="path3483" transform="matrix(1, 0, 0, 1, 5.684341886080802e-14, 5.694056337546272e-14)"/>
  <path style="color:#000000;fill:url(#linearGradient4228);fill-opacity:1;fill-rule:nonzero;stroke:none;stroke-width:1;marker:none;visibility:visible;display:inline;overflow:visible;enable-background:accumulate" d="M 35.411 38.096 C 32.634 38.88 29.844 39.702 27.094 40.542 C 26.852 43.807 26.955 47.174 26.897 50.477 C 26.994 51.466 26.714 52.633 27.1 53.538 C 32.704 51.837 38.288 49.916 43.834 47.999 C 43.915 47.386 42.998 46.904 42.725 46.356 C 40.345 43.583 38.031 40.717 35.502 38.096 L 35.443 38.091 L 35.411 38.096 Z" id="path4104" transform="matrix(1, 0, 0, 1, 5.684341886080802e-14, 5.694056337546272e-14)"/>
</svg>