<?xml version="1.0" encoding="utf-8"?>
<svg viewBox="146.6594 95.7692 36.6035 57.2775" xmlns="http://www.w3.org/2000/svg">
  <defs>
    <filter id="filter4011">
      <feGaussianBlur stdDeviation="0.34866198" id="feGaussianBlur4013"/>
    </filter>
  </defs>
  <path style="fill: rgb(71, 186, 255); fill-opacity: 1; stroke: rgb(0, 0, 0); stroke-width: 1; stroke-linecap: butt; stroke-linejoin: miter; stroke-miterlimit: 4; stroke-opacity: 1; stroke-dasharray: none; display: inline;" d="m 160.46786,95.769163 c 0,0 -5.08371,11.152797 -8.47996,17.492717 -3.37751,6.30489 -14.65922,38.3933 11.48328,39.75614 20.61079,1.07447 24.54717,-28.43575 14.48661,-37.98922 -11.80807,-11.21292 -17.48993,-19.259637 -17.48993,-19.259637 z" id="path4265" transform="matrix(0.9999999999999999, 0, 0, 0.9999999999999999, 0, 0)"/>
  <path style="color:#000000;fill:#70fff0;fill-opacity:1;fill-rule:nonzero;stroke:none;stroke-width:1;marker:none;visibility:visible;display:inline;overflow:visible;enable-background:accumulate" d="m 161,96.65625 c 0,1.413558 -10.58745,38.88085 5.3125,41.53125 15.89994,2.65041 16.25,-4.4375 16.25,-4.4375 l -0.0625,-0.0937 c 0.23718,-0.47626 0.38579,-0.97681 0.28125,-1.5625 0.0128,-4.45502 -0.11355,-9.11104 -2.34375,-13.09375 -1.97865,-3.63704 -5.49052,-6.08587 -8.1875,-9.15625 -3.55537,-3.63566 -6.83943,-7.48069 -10.15625,-11.3125 L 161,96.65625 z m 9.40625,14.78125 c 3.10196,1.68397 5.54334,4.38824 7.71875,7.125 1.72371,2.36599 3.76219,5.34815 2.84375,8.40625 -0.31355,0.67931 -0.83442,1.1926 -1.46875,1.53125 l -9.40625,-16.1875 c 0.0908,-0.29183 0.19118,-0.59761 0.3125,-0.875 z" id="path4235" transform="matrix(0.9999999999999999, 0, 0, 0.9999999999999999, 0, 0)"/>
  <path style="fill: rgb(226, 248, 246); fill-opacity: 0.999602; stroke: none; filter: url('#filter4011'); display: inline;" d="m 170.53783,111.84832 c 0,0 -2.65,7.06776 2.11999,13.42875 4.76998,6.36099 11.12997,2.8271 6.88998,-4.06396 -4.23999,-6.89106 -9.00997,-9.36479 -9.00997,-9.36479 z" id="path4281" transform="matrix(0.9999999999999999, 0, 0, 0.9999999999999999, 0, 0)"/>
  <path style="color:#000000;fill:#197fff;fill-opacity:1;stroke:none;stroke-width:0.68405145;marker:none;visibility:visible;display:inline;overflow:visible;enable-background:accumulate" id="path4275" d="M 163.422 136.642 C 162.654 141.203 159.271 143.564 157.332 140.893 C 156.432 139.653 156.097 137.585 156.454 135.469 C 157.221 130.908 160.605 128.547 162.544 131.218 C 163.444 132.458 163.778 134.526 163.422 136.642 Z" transform="matrix(0.9999999999999999, 0, 0, 0.9999999999999999, 0, 0)"/>
</svg>