<?xml version="1.0" encoding="utf-8"?>
<svg viewBox="624.4063 105.313 53.8077 54.937" xmlns="http://www.w3.org/2000/svg" xmlns:xlink="http://www.w3.org/1999/xlink">
  <defs>
    <linearGradient id="linearGradient4130" x1="662.61951" y1="128.82259" x2="661.66278" y2="122.26199" gradientUnits="userSpaceOnUse" xlink:href="#linearGradient4124"/>
    <linearGradient id="linearGradient4124">
      <stop style="stop-color:#00ad3f;stop-opacity:1" offset="0" id="stop4126"/>
      <stop style="stop-color:#076e00;stop-opacity:1" offset="1" id="stop4128"/>
    </linearGradient>
    <filter id="filter4223" x="-0.099082602" width="1.1981652" y="-0.1521126" height="1.3042252">
      <feGaussianBlur stdDeviation="0.61505525" id="feGaussianBlur4225"/>
    </filter>
    <linearGradient id="linearGradient4203" x1="615.61298" y1="397.3689" x2="614.55444" y2="399.57687" gradientUnits="userSpaceOnUse" gradientTransform="matrix(1.386301, -2.147086, 2.150262, 1.384781, -1054.819946, 888.300049)" xlink:href="#linearGradient4173"/>
    <linearGradient id="linearGradient4173">
      <stop style="stop-color:#086e00;stop-opacity:1;" offset="0" id="stop4175"/>
      <stop style="stop-color:#ffffff;stop-opacity:1;" offset="1" id="stop4177"/>
    </linearGradient>
    <linearGradient id="linearGradient4195" x1="616.27515" y1="396.83057" x2="614.89886" y2="398.86197" gradientUnits="userSpaceOnUse" gradientTransform="matrix(1.625217, -1.972372, 1.975753, 1.624153, -1123.136963, 680.697632)" xlink:href="#linearGradient4173"/>
    <linearGradient id="linearGradient4187" x1="617.44012" y1="399.12848" x2="614.88098" y2="396.3765" gradientUnits="userSpaceOnUse" gradientTransform="matrix(2.03477, 1.546227, -1.544518, 2.038729, 32.709545, -1646.292236)" xlink:href="#linearGradient4173"/>
    <linearGradient id="linearGradient4179" x1="615.46729" y1="397.11105" x2="621.10284" y2="399.21619" gradientUnits="userSpaceOnUse" gradientTransform="matrix(0.894855, 1.85154, -1.87617, 0.886712, 866.070801, -1367.23645)" xlink:href="#linearGradient4173"/>
    <linearGradient id="linearGradient4163" x1="615.89758" y1="397.65866" x2="623.53253" y2="396.86707" gradientUnits="userSpaceOnUse" gradientTransform="matrix(0.69114, 1.431614, -1.449056, 0.685607, 818.098511, -1021.578979)" xlink:href="#linearGradient4173"/>
    <filter id="filter4237">
      <feGaussianBlur stdDeviation="0.31121386" id="feGaussianBlur4239"/>
    </filter>
  </defs>
  <path style="color:#000000;fill:url(#linearGradient4130);stroke:#000000;stroke-width:1;stroke-linecap:butt;stroke-linejoin:miter;stroke-miterlimit:4;stroke-opacity:1;stroke-dasharray:none;stroke-dashoffset:0;marker:none;visibility:visible;display:inline;overflow:visible;enable-background:accumulate;fill-opacity:1" d="M 661.84375 110.4375 C 661.84375 110.4375 653.62633 117.94118 646.65625 124.28125 C 647.36915 124.44497 647.39664 124.36363 648.375 124.6875 C 649.61365 125.09754 651.02878 125.66306 652.40625 126.40625 C 653.78372 127.14944 655.14781 128.05698 656.34375 129.21875 C 657.53969 130.38052 658.44509 131.71144 659.15625 133.03125 C 659.86741 134.35106 660.36851 135.66489 660.71875 136.84375 C 660.98231 137.73086 660.91061 137.74732 661.03125 138.40625 L 667.5 132 L 672.8125 116.96875 L 661.84375 110.4375 z " id="path4404" transform="matrix(1, 0, 0, 1, 0, -1.4210854715202004e-14)"/>
  <path style="fill: rgb(255, 255, 255); fill-opacity: 1; stroke: none; filter: url('#filter4223'); display: inline;" d="m 655.64888,120.07513 13.80457,-3.96369 -5.33048,-5.1938 -8.88413,2.5969 z" id="path4205" transform="matrix(1, 0, 0, 1, 0, -1.4210854715202004e-14)"/>
  <path style="color:#000000;fill:#c3fd66;stroke:#000000;stroke-width:1;stroke-linecap:butt;stroke-linejoin:miter;stroke-miterlimit:4;stroke-opacity:1;stroke-dasharray:none;stroke-dashoffset:0;marker:none;visibility:visible;display:inline;overflow:visible;enable-background:accumulate;fill-opacity:1" d="M 661.03125 138.40625 C 660.91061 137.74732 660.98231 137.73086 660.71875 136.84375 C 660.36851 135.66489 659.86741 134.35106 659.15625 133.03125 C 658.44509 131.71144 657.53969 130.38052 656.34375 129.21875 C 655.14781 128.05698 653.78372 127.14944 652.40625 126.40625 C 651.02878 125.66306 649.61365 125.09754 648.375 124.6875 C 647.39664 124.36363 647.36915 124.44497 646.65625 124.28125 C 642.7698 127.81641 638.37723 131.74699 638.1875 132 C 637.65749 132.70677 638.6875 143.125 638.6875 143.125 L 624.9375 155.3125 C 624.9375 155.3125 624.58292 158.65975 624.40625 160.25 L 629.15625 159.71875 L 641.1875 148.0625 L 651.78125 147.53125 L 661.03125 138.40625 z " id="path4122" transform="matrix(1, 0, 0, 1, 0, -1.4210854715202004e-14)"/>
  <path style="color:#000000;fill:#a9e362;stroke:#000000;stroke-width:1;stroke-linecap:butt;stroke-linejoin:miter;stroke-miterlimit:4;stroke-opacity:1;stroke-dasharray:none;stroke-dashoffset:0;marker:none;visibility:visible;display:inline;overflow:visible;enable-background:accumulate;fill-opacity:1" d="m 640.7166,125.73991 c -0.0827,-0.58493 -8.01115,15.29488 0.24984,15.74263 8.26099,0.44775 4.80888,-10.48625 -0.24984,-15.74263 z" id="path4412" transform="matrix(1, 0, 0, 1, 0, -1.4210854715202004e-14)"/>
  <path id="path4422" d="m 661.07219,143.7166 c 0.59056,-0.0102 -13.84674,10.31212 -15.58454,2.22229 -1.73779,-8.08981 9.60061,-6.39478 15.58454,-2.22229 z" style="color:#000000;fill:#a9e362;stroke:#000000;stroke-width:1;stroke-linecap:butt;stroke-linejoin:miter;stroke-miterlimit:4;stroke-opacity:1;stroke-dasharray:none;stroke-dashoffset:0;marker:none;visibility:visible;display:inline;overflow:visible;enable-background:accumulate;fill-opacity:1;fill-rule:nonzero" transform="matrix(1, 0, 0, 1, 0, -1.4210854715202004e-14)"/>
  <path style="color:#000000;fill:url(#linearGradient4203);stroke:#000000;stroke-width:0.39113501000000001;stroke-linecap:butt;stroke-linejoin:miter;stroke-miterlimit:4;stroke-opacity:1;stroke-dasharray:none;stroke-dashoffset:0;marker:none;visibility:visible;display:inline;overflow:visible;enable-background:accumulate;fill-opacity:1" id="path4426" d="M 659.351 118.161 L 654.683 121.249 L 649.67 118.756 L 649.325 113.174 L 653.993 110.086 L 659.006 112.579 L 659.351 118.161 Z" transform="matrix(1, 0, 0, 1, 0, -1.4210854715202004e-14)"/>
  <path d="M 668.569 113.953 L 663.575 116.481 L 658.884 113.425 L 659.187 107.84 L 664.181 105.313 L 668.872 108.369 L 668.569 113.953 Z" id="path4428" style="color:#000000;fill:url(#linearGradient4195);stroke:#000000;stroke-width:0.39113501000000001;stroke-linecap:butt;stroke-linejoin:miter;stroke-miterlimit:4;stroke-opacity:1;stroke-dasharray:none;stroke-dashoffset:0;marker:none;visibility:visible;display:inline;overflow:visible;enable-background:accumulate;fill-opacity:1" transform="matrix(1, 0, 0, 1, 0, -1.4210854715202004e-14)"/>
  <path style="color:#000000;fill:url(#linearGradient4187);stroke:#000000;stroke-width:0.39113501000000001;stroke-linecap:butt;stroke-linejoin:miter;stroke-miterlimit:4;stroke-opacity:1;stroke-dasharray:none;stroke-dashoffset:0;marker:none;visibility:visible;display:inline;overflow:visible;enable-background:accumulate;fill-opacity:1" id="path4430" d="M 669.755 121.89 L 667.032 116.999 L 669.9 112.19 L 675.491 112.272 L 678.214 117.163 L 675.346 121.972 L 669.755 121.89 Z" transform="matrix(1, 0, 0, 1, 0, -1.4210854715202004e-14)"/>
  <path d="M 667.79 128.677 L 667.644 124.186 L 671.509 121.81 L 675.521 123.924 L 675.667 128.415 L 671.801 130.792 L 667.79 128.677 Z" id="path4432" style="color:#000000;fill:url(#linearGradient4179);stroke:#000000;stroke-width:0.48408793999999999;stroke-linecap:butt;stroke-linejoin:miter;stroke-miterlimit:4;stroke-opacity:1;stroke-dasharray:none;stroke-dashoffset:0;marker:none;visibility:visible;display:inline;overflow:visible;enable-background:accumulate;fill-opacity:1" transform="matrix(1, 0, 0, 1, 0, -1.4210854715202004e-14)"/>
  <path style="color:#000000;fill:url(#linearGradient4163);stroke:#000000;stroke-width:0.62642825000000002;stroke-linecap:butt;stroke-linejoin:miter;stroke-miterlimit:4;stroke-opacity:1;stroke-dasharray:none;stroke-dashoffset:0;marker:none;visibility:visible;display:inline;overflow:visible;enable-background:accumulate;fill-opacity:1" id="path4434" d="M 664.957 135.064 L 664.844 131.592 L 667.829 129.754 L 670.928 131.389 L 671.04 134.862 L 668.055 136.699 L 664.957 135.064 Z" transform="matrix(1, 0, 0, 1, 0, -1.4210854715202004e-14)"/>
  <path style="fill: none; stroke: rgb(224, 255, 170); stroke-width: 2.5; stroke-linecap: round; stroke-linejoin: miter; stroke-miterlimit: 4; stroke-opacity: 1; stroke-dasharray: none; filter: url('#filter4237'); display: inline;" d="m 648.4615,124.72221 c 0,0 4.91005,1.56887 7.73409,4.23705 4.10321,3.87676 4.56702,7.87077 4.56702,7.87077" id="path4227" transform="matrix(1, 0, 0, 1, 0, -1.4210854715202004e-14)"/>
</svg>