<?xml version="1.0" encoding="UTF-8"?>
<svg xmlns="http://www.w3.org/2000/svg" viewBox="0 0 65.94 68.37">
  <defs>
    <style>
      .cls-1 {
        fill: #afd15a;
      }
    </style>
  </defs>
  <g id="_图层_7" data-name="图层 7">
    <path class="cls-1" d="m43.94,11.1C40.4,5.49,34.52,1.35,27.31.26,15.89-1.46,4.68,5.51,1.15,16.5.44,18.73.07,20.97,0,23.17c-.04,1.43,1.32,2.49,2.7,2.12l9.47-2.6c.05-.49.11-.97.22-1.46,1.42-6.32,7.69-10.29,14.01-8.87,2.88.65,5.27,2.31,6.89,4.53l9.41-2.59c1.38-.38,2-1.98,1.24-3.19Z"/>
  </g>
  <g id="_图层_8" data-name="图层 8">
    <path class="cls-1" d="m61.51,17.84l-26.02,7.15c-.05.45-.11.91-.22,1.37-1.42,6.32-7.69,10.29-14.01,8.87-2.85-.64-5.22-2.27-6.83-4.45l-9.48,2.6c-1.38.38-2,1.99-1.23,3.2,3.26,5.13,8.47,9.03,14.87,10.46.84.19,1.68.33,2.52.42.29,6.48.6,13.27.78,17.29.06,1.29,1.66,1.83,2.5.85L62.97,20.13c.9-1.06-.11-2.65-1.46-2.28Z"/>
  </g>
  <g id="_图层_9" data-name="图层 9">
    <path class="cls-1" d="m25.23,17.58c-3.43-.77-6.84,1.39-7.61,4.82-.77,3.43,1.39,6.84,4.82,7.61,3.43.77,6.84-1.39,7.61-4.82.77-3.43-1.39-6.84-4.82-7.61Z"/>
  </g>
</svg>