<?xml version="1.0" encoding="utf-8"?>
<svg viewBox="288.0623 101.3763 55.965 55.7239" xmlns="http://www.w3.org/2000/svg" xmlns:xlink="http://www.w3.org/1999/xlink">
  <defs>
    <radialGradient id="radialGradient4435" cx="312.76297" cy="113.30381" r="8.17872" gradientTransform="matrix(-0.2956297,-5.0913472,3.8226998,-0.22196562,-25.619481,1736.6528)" gradientUnits="userSpaceOnUse" xlink:href="#linearGradient4429"/>
    <linearGradient id="linearGradient4429">
      <stop style="stop-color:#fd173d;stop-opacity:1" offset="0" id="stop4431"/>
      <stop style="stop-color:#ffffff;stop-opacity:1" offset="1" id="stop4433"/>
    </linearGradient>
    <radialGradient id="radialGradient4443" cx="325.02252" cy="118.32218" r="8.0996353" gradientTransform="matrix(4.1683518,-6.1481217,2.0652431,1.4001762,-1274.1498,1951.7245)" gradientUnits="userSpaceOnUse" xlink:href="#linearGradient4437"/>
    <linearGradient id="linearGradient4437">
      <stop style="stop-color:#fe6600;stop-opacity:1;" offset="0" id="stop4439"/>
      <stop style="stop-color:#ffffff;stop-opacity:1" offset="1" id="stop4441"/>
    </linearGradient>
    <radialGradient id="radialGradient4451" cx="326.526" cy="128.31879" r="10.455955" gradientTransform="matrix(5.6242427,0.13138729,-0.06029559,2.5822082,-1502.1984,-246.10801)" gradientUnits="userSpaceOnUse" xlink:href="#linearGradient4445"/>
    <linearGradient id="linearGradient4445">
      <stop style="stop-color:#f5e136;stop-opacity:1;" offset="0" id="stop4447"/>
      <stop style="stop-color:#ffffff;stop-opacity:1" offset="1" id="stop4449"/>
    </linearGradient>
    <radialGradient id="radialGradient4459" cx="327.14368" cy="138.2173" r="7.7666425" gradientTransform="matrix(5.4557162,4.2695894,-3.4539647,4.4135524,-979.92284,-1868.6818)" gradientUnits="userSpaceOnUse" xlink:href="#linearGradient4453"/>
    <linearGradient id="linearGradient4453">
      <stop style="stop-color:#91fd35;stop-opacity:1" offset="0" id="stop4455"/>
      <stop style="stop-color:#ffffff;stop-opacity:0;" offset="1" id="stop4457"/>
    </linearGradient>
    <radialGradient id="radialGradient4467" cx="316.82178" cy="141.93846" r="9.018335" gradientTransform="matrix(0.8461525,6.0084599,-2.1552173,0.30351066,354.65046,-1805.1571)" gradientUnits="userSpaceOnUse" xlink:href="#linearGradient4461"/>
    <linearGradient id="linearGradient4461">
      <stop style="stop-color:#36e300;stop-opacity:1;" offset="0" id="stop4463"/>
      <stop style="stop-color:#ffffff;stop-opacity:1" offset="1" id="stop4465"/>
    </linearGradient>
    <radialGradient id="radialGradient4475" cx="307.25427" cy="141.61102" r="8.3393521" gradientTransform="matrix(-3.6529447,3.3925357,-1.1798103,-1.2703751,1596.7113,-721.0749)" gradientUnits="userSpaceOnUse" xlink:href="#linearGradient4469"/>
    <linearGradient id="linearGradient4469">
      <stop style="stop-color:#3dfff0;stop-opacity:1;" offset="0" id="stop4471"/>
      <stop style="stop-color:#ffffff;stop-opacity:1" offset="1" id="stop4473"/>
    </linearGradient>
    <radialGradient id="radialGradient4483" cx="304.93073" cy="120.13564" r="8.5823594" gradientTransform="matrix(-3.3513519,-3.4957865,2.0108976,-1.9277858,1085.2804,1417.6437)" gradientUnits="userSpaceOnUse" xlink:href="#linearGradient4477"/>
    <linearGradient id="linearGradient4477">
      <stop style="stop-color:#ff3cef;stop-opacity:1;" offset="0" id="stop4479"/>
      <stop style="stop-color:#ffffff;stop-opacity:1" offset="1" id="stop4481"/>
    </linearGradient>
    <radialGradient id="radialGradient4491-1" cx="404.90799" cy="413.55103" r="3.7604132" gradientUnits="userSpaceOnUse" gradientTransform="matrix(4.565704, 0, 0, 4.568589, -2144.294224, -3663.980591)" xlink:href="#linearGradient4485-9"/>
    <linearGradient id="linearGradient4485-9">
      <stop style="stop-color:#808080;stop-opacity:1;" offset="0" id="stop4487-9"/>
      <stop style="stop-color:#ffffff;stop-opacity:1;" offset="1" id="stop4489-9"/>
    </linearGradient>
    <radialGradient id="radialGradient4491" cx="404.90799" cy="413.55103" r="3.7604131" gradientUnits="userSpaceOnUse" gradientTransform="matrix(1.461763, 0, 0, 1.461994, -271.462402, -479.868683)" xlink:href="#linearGradient4485"/>
    <linearGradient id="linearGradient4485">
      <stop style="stop-color:#808080;stop-opacity:1;" offset="0" id="stop4487"/>
      <stop style="stop-color:#ffffff;stop-opacity:1;" offset="1" id="stop4489"/>
    </linearGradient>
  </defs>
  <path style="color:#000000;fill:url(#radialGradient4435);fill-opacity:1;fill-rule:nonzero;stroke:none;stroke-width:1;marker:none;visibility:visible;display:inline;overflow:visible;enable-background:accumulate" d="M 305.75 109.40625 C 307.43757 112.77533 309.21933 116.12051 311 119.4375 C 312.73363 120.11698 314.44143 121.12364 315.15625 122.9375 C 315.84926 122.59717 316.05001 121.4244 316.78125 120.9375 C 317.45266 120.07903 318.56946 119.89181 319.375 119.28125 C 319.81858 115.80567 320.3483 112.31207 320.90625 108.84375 L 316.6875 103.5 L 310.90625 103.5 L 305.75 109.40625 z " id="path4271" transform="matrix(0.9999999999999999, 0, 0, 0.9999999999999999, 5.684341886080802e-14, 0)"/>
  <path style="color:#000000;fill:#e87ca6;fill-opacity:1;fill-rule:nonzero;stroke:none;stroke-width:1;marker:none;visibility:visible;display:inline;overflow:visible;enable-background:accumulate" d="M 305.75 109.40625 L 310.90625 103.5 L 316.6875 103.5 L 320.90625 108.84375 C 321.02663 108.09543 321.12444 107.33923 321.25 106.59375 C 320.11726 104.97353 319.10308 103.23732 317.90625 101.6875 L 313.71875 101.6875 C 312.28922 101.7228 310.81667 101.634 309.40625 101.75 C 307.92553 103.77506 306.24145 105.71502 304.90625 107.8125 C 305.16653 108.35205 305.48121 108.86964 305.75 109.40625 z " id="path4413" transform="matrix(0.9999999999999999, 0, 0, 0.9999999999999999, 5.684341886080802e-14, 0)"/>
  <path style="color:#000000;fill:url(#radialGradient4443);fill-opacity:1;fill-rule:nonzero;stroke:none;stroke-width:1;marker:none;visibility:visible;display:inline;overflow:visible;enable-background:accumulate" d="M 321.3125 111.28125 C 320.91852 113.73187 320.44748 116.16282 320.21875 118.625 C 320.05612 119.58353 321.08114 119.56929 321.71875 119.59375 C 323.57243 119.98862 324.91543 121.62361 325.625 123.3125 C 327.80143 122.47585 329.89405 121.0568 332.0625 120.03125 C 333.1034 119.45117 334.20233 118.9415 335.25 118.375 L 334.53125 110.1875 L 328.75 106.5 L 324.03125 108.21875 L 321.3125 111.28125 z " id="path4260" transform="matrix(0.9999999999999999, 0, 0, 0.9999999999999999, 5.684341886080802e-14, 0)"/>
  <path style="color:#000000;fill:#feac75;fill-opacity:1;fill-rule:nonzero;stroke:none;stroke-width:1;marker:none;visibility:visible;display:inline;overflow:visible;enable-background:accumulate" d="M 321.3125 111.28125 L 324.03125 108.21875 L 328.75 106.5 L 334.53125 110.1875 L 335.25 118.375 C 335.56796 118.20307 335.91829 118.06688 336.21875 117.875 C 336.18545 115.23246 336.247 112.54794 336.40625 109.9375 C 333.78026 108.06946 331.19103 106.02771 328.53125 104.25 L 325.28125 105.4375 C 324.18363 105.88344 323.00955 106.22182 321.96875 106.75 C 321.68615 108.25154 321.55545 109.77006 321.3125 111.28125 z " id="path4415" transform="matrix(0.9999999999999999, 0, 0, 0.9999999999999999, 5.684341886080802e-14, 0)"/>
  <path style="color:#000000;fill:url(#radialGradient4451);fill-opacity:1;fill-rule:nonzero;stroke:none;stroke-width:1;marker:none;visibility:visible;display:inline;overflow:visible;enable-background:accumulate" d="M 339.46875 120.8125 C 338.37536 120.07967 337.30627 119.31252 336.1875 118.65625 L 332.9375 120.34375 C 330.55507 121.61021 328.10345 122.79606 325.8125 124.1875 C 325.8095 126.33113 324.69292 128.40907 322.84375 129.53125 C 323.19703 130.11424 324.20009 130.27394 324.71875 130.84375 C 327.04019 132.35524 329.86441 132.86673 332.4375 133.84375 C 334.66414 134.52423 336.88567 135.38878 339.125 135.9375 C 339.26743 135.83305 339.38971 135.70033 339.53125 135.59375 L 342.25 130.46875 L 342.0625 124.15625 L 339.46875 120.8125 z " id="path4255" transform="matrix(0.9999999999999999, 0, 0, 0.9999999999999999, 5.684341886080802e-14, 0)"/>
  <path style="color:#000000;fill:#f8f5f1;fill-opacity:1;fill-rule:nonzero;stroke:none;stroke-width:1;marker:none;visibility:visible;display:inline;overflow:visible;enable-background:accumulate" d="M 339.46875 120.8125 L 342.0625 124.15625 L 342.25 130.46875 L 339.53125 135.59375 C 340.99448 134.4919 342.4199 133.29277 343.75 132.0625 C 343.4425 129.14317 343.50698 126.17991 343.25 123.28125 C 341.98356 122.46692 340.7263 121.65535 339.46875 120.8125 z " id="path4417" transform="matrix(0.9999999999999999, 0, 0, 0.9999999999999999, 5.684341886080802e-14, 0)"/>
  <path style="color:#000000;fill:url(#radialGradient4459);fill-opacity:1;fill-rule:nonzero;stroke:none;stroke-width:1;marker:none;visibility:visible;display:inline;overflow:visible;enable-background:accumulate" d="m 326.45251,132.68132 c -0.26483,0.84886 0.31794,1.84706 0.0725,2.77254 -0.026,1.76407 -1.32652,3.05848 -2.54905,4.16185 1.31111,3.4789 3.0195,6.91141 4.45782,10.38347 2.13887,0.13815 4.42338,0.14506 6.56593,-0.21746 1.48934,-1.81328 3.04381,-3.58818 4.49407,-5.42429 -0.0627,-2.52011 0.12284,-5.12295 -0.0906,-7.5928 -4.31445,-1.35568 -8.59082,-2.91334 -12.95065,-4.08331 z" id="path4419" transform="matrix(0.9999999999999999, 0, 0, 0.9999999999999999, 5.684341886080802e-14, 0)"/>
  <path style="color:#000000;fill:#b2f298;fill-opacity:1;fill-rule:nonzero;stroke:none;stroke-width:1;marker:none;visibility:visible;display:inline;overflow:visible;enable-background:accumulate" d="M 327.1875 149.25 L 322.0625 154.5625 L 311.90625 154.21875 C 312.62855 155.04846 313.31587 155.9282 314.125 156.65625 C 315.71556 156.92125 317.37992 156.45697 319 156.53125 C 320.33416 156.44905 321.72083 156.54034 323.03125 156.375 C 324.49015 154.27577 326.04771 152.04516 327.53125 150.0625 C 327.43945 149.78483 327.28583 149.52586 327.1875 149.25 z " id="path4249" transform="matrix(0.9999999999999999, 0, 0, 0.9999999999999999, 5.684341886080802e-14, 0)"/>
  <path style="color:#000000;fill:url(#radialGradient4467);fill-opacity:1;fill-rule:nonzero;stroke:none;stroke-width:1;marker:none;visibility:visible;display:inline;overflow:visible;enable-background:accumulate" d="M 316.3125 137.25 C 315.22626 138.7968 313.64979 140.3594 311.59375 140.375 C 310.66814 140.48 311.12372 141.86195 310.8125 142.46875 C 310.36301 145.50542 309.84615 148.55837 309.5 151.59375 C 310.31508 152.44824 311.1259 153.32236 311.90625 154.21875 L 322.0625 154.5625 L 327.1875 149.25 C 326.08653 146.1614 324.66815 143.1604 323.40625 140.125 C 321.70527 139.8949 319.64502 140.46605 318.21875 139.15625 C 317.44265 138.6988 317.00883 137.832 316.375 137.25 L 316.3125 137.25 z " id="path4421" transform="matrix(0.9999999999999999, 0, 0, 0.9999999999999999, 5.684341886080802e-14, 0)"/>
  <path style="color:#000000;fill:url(#radialGradient4475);fill-opacity:1;fill-rule:nonzero;stroke:none;stroke-width:1;marker:none;visibility:visible;display:inline;overflow:visible;enable-background:accumulate" d="m 302.98551,138.22037 c -3.10226,1.04579 -6.34732,1.89163 -9.36264,3.05645 0.029,2.78353 -0.057,5.59111 0.0423,8.35993 2.09092,1.8056 4.20375,3.65793 6.57801,5.07395 2.83872,-0.95004 5.6848,-2.10125 8.39618,-3.37659 0.77971,-3.43157 1.26738,-6.96125 1.65507,-10.45595 -0.0444,-1.008 -1.53003,-0.81794 -2.0779,-1.47991 -0.82534,-0.56702 -1.37936,-1.48544 -2.04166,-2.18663 -1.06311,0.33625 -2.12623,0.6725 -3.18934,1.00875 z" id="path4423" transform="matrix(0.9999999999999999, 0, 0, 0.9999999999999999, 5.684341886080802e-14, 0)"/>
  <path style="color:#000000;fill:#177cff;fill-opacity:1;fill-rule:nonzero;stroke:none;stroke-width:1;marker:none;visibility:visible;display:inline;overflow:visible;enable-background:accumulate" d="M 293.9375 140.375 C 293.94959 140.38289 293.95664 140.39839 293.96875 140.40625 C 297.95373 139.11235 302.07476 137.94167 305.96875 136.5 C 305.99185 134.53678 306.21336 132.28888 307.9375 131.0625 C 309.16175 130.45464 308.87644 129.77925 307.6875 129.5 C 306.3876 128.74345 305.22588 127.46565 304.96875 125.96875 C 303.98867 125.2052 302.5029 125.34291 301.34375 124.9375 C 298.75322 124.40618 296.15855 123.84929 293.5625 123.375 L 290.84375 127.25 L 290.84375 135.25 L 294.375 139.0625 L 293.9375 140.375 z " id="path4244" transform="matrix(0.9999999999999999, 0, 0, 0.9999999999999999, 5.684341886080802e-14, 0)"/>
  <path style="color:#000000;fill:#77bcef;fill-opacity:1;fill-rule:nonzero;stroke:none;stroke-width:1;marker:none;visibility:visible;display:inline;overflow:visible;enable-background:accumulate" d="M 293.9375 140.375 L 294.375 139.0625 L 290.84375 135.25 L 290.84375 127.25 L 293.5625 123.375 C 293.13551 123.29699 292.70783 123.19542 292.28125 123.125 C 291.07208 124.37483 289.78351 125.55876 288.625 126.84375 C 288.5771 129.90242 288.39384 132.99034 288.4375 136.03125 C 290.27476 137.45519 292.00661 139.11559 293.9375 140.375 z " id="path4425" transform="matrix(0.9999999999999999, 0, 0, 0.9999999999999999, 5.684341886080802e-14, 0)"/>
  <path style="color:#000000;fill:url(#radialGradient4483);fill-opacity:1;fill-rule:nonzero;stroke:none;stroke-width:1;marker:none;visibility:visible;display:inline;overflow:visible;enable-background:accumulate" d="M 292.84375 119.34375 C 292.84209 120.36422 292.84467 121.38578 292.84375 122.40625 C 296.32769 123.36974 300.04891 123.95586 303.625 124.75 C 304.16541 125.03569 305.04765 125.07145 304.90625 124.25 C 305.19288 121.7128 307.40542 119.79253 309.875 119.46875 C 310.3531 119.05428 309.39689 118.28558 309.3125 117.75 C 307.62276 114.60253 305.98491 111.34865 304.15625 108.3125 C 302.74187 108.00985 301.28299 108.02773 299.8125 108.0625 L 295.03125 113.59375 L 294.78125 118.46875 L 292.84375 119.34375 z " id="path4266" transform="matrix(0.9999999999999999, 0, 0, 0.9999999999999999, 5.684341886080802e-14, 0)"/>
  <path style="color:#000000;fill:#f096e9;fill-opacity:1;fill-rule:nonzero;stroke:none;stroke-width:1;marker:none;visibility:visible;display:inline;overflow:visible;enable-background:accumulate" d="M 292.84375 119.34375 L 294.78125 118.46875 L 295.03125 113.59375 L 299.8125 108.0625 C 299.03033 108.08099 298.23872 108.10137 297.46875 108.0625 L 297.375 108.125 C 295.8782 109.80214 294.32918 111.42045 292.875 113.125 C 292.86897 115.19721 292.84712 117.27153 292.84375 119.34375 z " id="path4427" transform="matrix(0.9999999999999999, 0, 0, 0.9999999999999999, 5.684341886080802e-14, 0)"/>
  <path style="fill: none; stroke: rgb(0, 0, 0); stroke-width: 1; stroke-linecap: butt; stroke-linejoin: miter; stroke-miterlimit: 4; stroke-opacity: 1; stroke-dasharray: none; display: inline;" d="m 304.30216,107.84426 4.99689,-6.46796 8.86945,0 3.37288,5.09975 7.12054,-2.61207 7.99498,5.84605 -0.12498,8.70686 7.12056,4.72658 0.37475,9.20439 -4.12243,3.48275 0,8.58247 -4.87194,5.84605 -7.49529,0.24877 -4.37227,6.21917 -9.24422,0.37316 -4.87195,-5.47288 -8.86945,3.60712 c 0,0 -6.87071,-4.97534 -6.87071,-5.59726 0,-0.62192 0,-9.20441 0,-9.20441 l -5.24669,-4.35342 0.24981,-9.45317 4.12244,-4.10466 0.12498,-9.57755 4.74703,-5.22411 z" id="path4317" transform="matrix(0.9999999999999999, 0, 0, 0.9999999999999999, 5.684341886080802e-14, 0)"/>
  <path style="fill: none; stroke: rgb(0, 0, 0); stroke-width: 1; stroke-linecap: butt; stroke-linejoin: miter; stroke-miterlimit: 4; stroke-opacity: 1; stroke-dasharray: none; display: inline;" d="m 304.42712,107.87326 7.87008,14.74311" id="path4319" transform="matrix(0.9999999999999999, 0, 0, 0.9999999999999999, 5.684341886080802e-14, 0)"/>
  <path style="fill: none; stroke: rgb(0, 0, 0); stroke-width: 1; stroke-linecap: butt; stroke-linejoin: miter; stroke-miterlimit: 4; stroke-opacity: 1; stroke-dasharray: none; display: inline;" d="m 321.66632,106.37397 c -0.49969,1.37435 -2.37351,15.99252 -2.37351,15.99252" id="path4321" transform="matrix(0.9999999999999999, 0, 0, 0.9999999999999999, 5.684341886080802e-14, 0)"/>
  <path style="fill: none; stroke: rgb(0, 0, 0); stroke-width: 1; stroke-linecap: butt; stroke-linejoin: miter; stroke-miterlimit: 4; stroke-opacity: 1; stroke-dasharray: none; display: inline;" d="m 337.0317,117.99354 c -0.49969,-0.125 -14.49092,7.49649 -14.49092,7.49649" id="path4323" transform="matrix(0.9999999999999999, 0, 0, 0.9999999999999999, 5.684341886080802e-14, 0)"/>
  <path style="fill: none; stroke: rgb(0, 0, 0); stroke-width: 1; stroke-linecap: butt; stroke-linejoin: miter; stroke-miterlimit: 4; stroke-opacity: 1; stroke-dasharray: none; display: inline;" d="m 340.40459,136.73476 c -0.74952,-0.24988 -17.73889,-5.7473 -17.73889,-5.7473" id="path4325" transform="matrix(0.9999999999999999, 0, 0, 0.9999999999999999, 5.684341886080802e-14, 0)"/>
  <path style="fill: none; stroke: rgb(0, 0, 0); stroke-width: 1; stroke-linecap: butt; stroke-linejoin: miter; stroke-miterlimit: 4; stroke-opacity: 1; stroke-dasharray: none; display: inline;" d="m 328.28719,150.47834 -7.12056,-16.2424" id="path4327" transform="matrix(0.9999999999999999, 0, 0, 0.9999999999999999, 5.684341886080802e-14, 0)"/>
  <path style="fill: none; stroke: rgb(0, 0, 0); stroke-width: 1; stroke-linecap: butt; stroke-linejoin: miter; stroke-miterlimit: 4; stroke-opacity: 1; stroke-dasharray: none; display: inline;" d="m 309.04922,152.10257 2.49844,-16.99204" id="path4329" transform="matrix(0.9999999999999999, 0, 0, 0.9999999999999999, 5.684341886080802e-14, 0)"/>
  <path style="fill: none; stroke: rgb(0, 0, 0); stroke-width: 1; stroke-linecap: butt; stroke-linejoin: miter; stroke-miterlimit: 4; stroke-opacity: 1; stroke-dasharray: none; display: inline;" d="m 293.18415,140.98277 c 0.62461,-0.24988 19.73764,-6.24707 19.73764,-6.24707" id="path4331" transform="matrix(0.9999999999999999, 0, 0, 0.9999999999999999, 5.684341886080802e-14, 0)"/>
  <path style="fill: none; stroke: rgb(0, 0, 0); stroke-width: 1; stroke-linecap: butt; stroke-linejoin: miter; stroke-miterlimit: 4; stroke-opacity: 1; stroke-dasharray: none; display: inline;" d="m 292.43463,122.74132 17.36412,3.6233" id="path4333" transform="matrix(0.9999999999999999, 0, 0, 0.9999999999999999, 5.684341886080802e-14, 0)"/>
  <path style="color:#000000;fill:url(#radialGradient4491-1);fill-opacity:1;fill-rule:nonzero;stroke:#000000;stroke-width:0.68405145;stroke-linecap:butt;stroke-linejoin:round;stroke-miterlimit:4;stroke-opacity:1;stroke-dasharray:none;stroke-dashoffset:0;marker:none;visibility:visible;display:inline;overflow:visible;enable-background:accumulate" id="path4307" d="M 315.17 124.865 C 315.17 128.713 311.006 131.117 307.675 129.193 C 306.129 128.301 305.177 126.651 305.177 124.865 C 305.177 121.018 309.341 118.614 312.672 120.537 C 314.218 121.43 315.17 123.08 315.17 124.865 Z" transform="matrix(0.9999999999999999, 0, 0, 0.9999999999999999, 5.684341886080802e-14, 0)"/>
  <path d="M 325.414 124.74 C 325.414 128.588 321.25 130.992 317.919 129.068 C 316.373 128.176 315.42 126.526 315.42 124.74 C 315.42 120.893 319.584 118.489 322.916 120.412 C 324.462 121.305 325.414 122.955 325.414 124.74 Z" id="path4309" style="color:#000000;fill:url(#radialGradient4491);fill-opacity:1;stroke:#000000;stroke-width:0.68405145;stroke-linecap:butt;stroke-linejoin:round;stroke-miterlimit:4;stroke-opacity:1;stroke-dasharray:none;stroke-dashoffset:0;marker:none;visibility:visible;display:inline;overflow:visible;enable-background:accumulate" transform="matrix(0.9999999999999999, 0, 0, 0.9999999999999999, 5.684341886080802e-14, 0)"/>
  <path style="color:#000000;fill:url(#radialGradient4491-1);fill-opacity:1;fill-rule:nonzero;stroke:#000000;stroke-width:0.68405145;stroke-linecap:butt;stroke-linejoin:round;stroke-miterlimit:4;stroke-opacity:1;stroke-dasharray:none;stroke-dashoffset:0;marker:none;visibility:visible;display:inline;overflow:visible;enable-background:accumulate" id="path4311" d="M 326.288 134.861 C 326.288 138.708 322.124 141.112 318.793 139.189 C 317.247 138.296 316.295 136.646 316.295 134.861 C 316.295 131.013 320.459 128.609 323.79 130.533 C 325.336 131.425 326.288 133.075 326.288 134.861 Z" transform="matrix(0.9999999999999999, 0, 0, 0.9999999999999999, 5.684341886080802e-14, 0)"/>
  <path d="M 316.295 135.111 C 316.295 138.958 312.131 141.362 308.799 139.439 C 307.253 138.546 306.301 136.896 306.301 135.111 C 306.301 131.263 310.465 128.859 313.796 130.782 C 315.342 131.675 316.295 133.325 316.295 135.111 Z" id="path4313" style="color:#000000;fill:url(#radialGradient4491-1);fill-opacity:1;fill-rule:nonzero;stroke:#000000;stroke-width:0.68405145;stroke-linecap:butt;stroke-linejoin:round;stroke-miterlimit:4;stroke-opacity:1;stroke-dasharray:none;stroke-dashoffset:0;marker:none;visibility:visible;display:inline;overflow:visible;enable-background:accumulate" transform="matrix(0.9999999999999999, 0, 0, 0.9999999999999999, 5.684341886080802e-14, 0)"/>
  <path style="color:#000000;fill:url(#radialGradient4491-1);fill-opacity:1;fill-rule:nonzero;stroke:#000000;stroke-width:0.68405145;stroke-linecap:butt;stroke-linejoin:round;stroke-miterlimit:4;stroke-opacity:1;stroke-dasharray:none;stroke-dashoffset:0;marker:none;visibility:visible;display:inline;overflow:visible;enable-background:accumulate" id="path4315" d="M 320.792 130.238 C 320.792 134.085 316.628 136.49 313.297 134.566 C 311.751 133.673 310.798 132.023 310.798 130.238 C 310.798 126.391 314.962 123.986 318.293 125.91 C 319.839 126.802 320.792 128.452 320.792 130.238 Z" transform="matrix(0.9999999999999999, 0, 0, 0.9999999999999999, 5.684341886080802e-14, 0)"/>
  <path style="color:#000000;fill:#808080;fill-opacity:0;fill-rule:nonzero;stroke:none;stroke-width:1;marker:none;visibility:visible;display:inline;overflow:visible;enable-background:accumulate" d="m 309.45089,101.73615 c -1.49143,1.98813 -3.12229,3.91707 -4.51468,5.95408 1.06737,2.66415 2.59924,5.15409 3.90375,7.72015 0.79921,1.36674 1.4277,2.88349 2.32796,4.16664 1.18758,0.35997 2.34192,0.95128 3.1308,1.95622 0.45954,0.3714 0.55224,1.26733 1.05926,1.41377 0.66426,-1.62235 2.06178,-2.85629 3.71169,-3.39989 0.61813,-0.47609 0.31133,-1.44959 0.55265,-2.11296 0.49109,-3.61361 0.99998,-7.24391 1.57441,-10.8331 -1.11671,-1.62169 -2.12751,-3.35836 -3.30592,-4.91189 -2.80934,0.0317 -5.64846,-0.0629 -8.43992,0.047 z" id="path4408" transform="matrix(0.9999999999999999, 0, 0, 0.9999999999999999, 5.684341886080802e-14, 0)"/>
</svg>