<?xml version="1.0" encoding="utf-8"?>
<svg viewBox="203.5744 97.5361 57.9465 61.3128" xmlns="http://www.w3.org/2000/svg" xmlns:xlink="http://www.w3.org/1999/xlink">
  <defs>
    <radialGradient id="radialGradient4328" cx="242.51695" cy="113.71928" r="6.763506" gradientTransform="matrix(1.2682222,1.2506034,-1.6531822,1.6764675,123.20956,-380.22542)" gradientUnits="userSpaceOnUse" xlink:href="#linearGradient4330"/>
    <linearGradient id="linearGradient4330">
      <stop style="stop-color:#e4bb27;stop-opacity:1" offset="0" id="stop4332"/>
      <stop style="stop-color:#ffff7f;stop-opacity:1" offset="1" id="stop4334"/>
    </linearGradient>
    <radialGradient id="radialGradient4406" cx="231.24875" cy="112.01549" r="8.877725" gradientTransform="matrix(-0.68670546,-4.0477712,1.2162967,-0.20634505,252.38136,1069.2137)" gradientUnits="userSpaceOnUse" xlink:href="#linearGradient4330"/>
    <radialGradient id="radialGradient4342" cx="249.73483" cy="126.03709" r="7.2078831" gradientTransform="matrix(2.3598883,0.02681891,-0.01297991,1.1420667,-337.97552,-24.539278)" gradientUnits="userSpaceOnUse" xlink:href="#linearGradient4330"/>
    <radialGradient id="radialGradient4384" cx="246.44884" cy="138.92033" r="6.9328625" gradientTransform="matrix(1.7286063,1.7286049,-0.82802433,0.82802529,-64.534759,-402.37704)" gradientUnits="userSpaceOnUse" xlink:href="#linearGradient4330-4"/>
    <linearGradient id="linearGradient4330-4">
      <stop style="stop-color:#e4bb27;stop-opacity:1" offset="0" id="stop4332-9"/>
      <stop style="stop-color:#ffff7f;stop-opacity:1" offset="1" id="stop4334-5"/>
    </linearGradient>
    <radialGradient id="radialGradient4400" cx="222.0939" cy="141.53996" r="7.8597053" gradientTransform="matrix(-1.8444704,2.4838877,-0.79527524,-0.59055017,744.30276,-326.50531)" gradientUnits="userSpaceOnUse" xlink:href="#linearGradient4330"/>
    <radialGradient id="radialGradient4392" cx="235.62442" cy="145.45979" r="7.4988872" gradientTransform="matrix(0.3866454,2.6034039,-1.03405,0.15357228,294.93402,-490.52701)" gradientUnits="userSpaceOnUse" xlink:href="#linearGradient4330-4"/>
    <radialGradient id="radialGradient4402" cx="216.2951" cy="130.06537" r="6.9259914" gradientTransform="matrix(-3.962991,0.6697996,-0.19334427,-1.1439565,1098.6181,133.88174)" gradientUnits="userSpaceOnUse" xlink:href="#linearGradient4330"/>
    <radialGradient id="radialGradient4404" cx="219.38779" cy="117.45913" r="6.718507" gradientTransform="matrix(-2.9057952,-2.4454724,0.62593726,-0.74376008,783.36171,741.2711)" gradientUnits="userSpaceOnUse" xlink:href="#linearGradient4330"/>
    <linearGradient id="linearGradient4269" x1="245.06534" y1="131.41948" x2="218.00291" y2="123.08207" gradientUnits="userSpaceOnUse" xlink:href="#linearGradient4271"/>
    <linearGradient id="linearGradient4271">
      <stop id="stop4273" offset="0" style="stop-color:#d9dc6e;stop-opacity:1"/>
      <stop id="stop4275" offset="1" style="stop-color:#e3300d;stop-opacity:1"/>
    </linearGradient>
    <linearGradient id="linearGradient4245" x1="231.26077" y1="125.13225" x2="225.52025" y2="122.53535" gradientUnits="userSpaceOnUse" xlink:href="#linearGradient4322"/>
    <linearGradient id="linearGradient4322">
      <stop id="stop4324" offset="0" style="stop-color:#ff6600;stop-opacity:1;"/>
      <stop id="stop4326" offset="1" style="stop-color:#ffffff;stop-opacity:1"/>
    </linearGradient>
    <filter id="filter4265" x="-0.11672728" width="1.2334546" y="-0.065605836" height="1.1312117">
      <feGaussianBlur stdDeviation="0.51186275" id="feGaussianBlur4267"/>
    </filter>
  </defs>
  <path style="color:#000000;fill:url(#radialGradient4328);fill-opacity:1;fill-rule:nonzero;stroke:none;stroke-width:1;marker:none;visibility:visible;display:inline;overflow:visible;enable-background:accumulate" d="m 250.52773,105.10442 c -3.86859,0.13613 -7.75466,0.22775 -11.6049,0.58516 -0.40792,0.88332 -0.23323,1.98654 -0.34156,2.95128 0.031,1.09322 -0.17559,2.26304 0.13654,3.3146 2.62914,2.42945 4.88216,5.34219 7.58568,7.70527 0.57579,0.12589 1.0862,-0.56673 1.62491,-0.73458 1.37139,-0.81822 2.85425,-1.53921 4.14124,-2.44748 -0.0895,-3.7537 -0.34752,-7.50477 -0.60224,-11.25038 -0.13795,-0.28843 -0.69933,-0.0436 -0.93967,-0.12387 z" id="path4277" transform="matrix(1, 0, 0, 1, -2.842170943040401e-14, -1.4210854715202004e-14)"/>
  <path style="color:#000000;fill:url(#radialGradient4406);fill-opacity:1;fill-rule:nonzero;stroke:none;stroke-width:1;marker:none;visibility:visible;display:inline;overflow:visible;enable-background:accumulate" d="m 227.31366,98.189323 c -2.45754,3.196617 -4.78146,6.531437 -7.03469,9.870787 0.14147,0.73554 0.89152,1.31249 1.2691,1.96328 0.9289,1.12836 1.69509,2.47021 2.84408,3.38001 4.40971,-0.53317 8.87432,-0.92311 13.30484,-1.39669 0.30219,-0.76926 0.0785,-1.74996 0.18897,-2.59239 -0.003,-1.30027 0.14068,-2.62269 0.14846,-3.9084 -1.04649,-1.17311 -2.54647,-1.88073 -3.79728,-2.82677 -2.26566,-1.51108 -4.5011,-3.082297 -6.81669,-4.506912 l -0.10679,0.01709 z" id="path4283" transform="matrix(1, 0, 0, 1, -2.842170943040401e-14, -1.4210854715202004e-14)"/>
  <path style="color:#000000;fill:url(#radialGradient4342);fill-opacity:1;fill-rule:nonzero;stroke:none;stroke-width:1;marker:none;visibility:visible;display:inline;overflow:visible;enable-background:accumulate" d="m 252.14652,117.35854 c -1.88282,0.98807 -3.72238,2.11975 -5.58248,3.10518 -0.10492,1.36345 0.23103,2.75918 0.261,4.13401 0.17812,2.25968 0.33862,4.5212 0.53772,6.77895 1.79892,0.78434 3.79602,1.28338 5.67644,1.93913 0.65536,0.0909 1.33296,0.6432 1.99039,0.46983 1.20027,-1.35815 2.21587,-2.92225 3.37482,-4.33376 0.82042,-1.16062 1.88613,-2.24448 2.55517,-3.45248 -2.87122,-2.89616 -5.74051,-5.8584 -8.72764,-8.64513 l -0.0854,0.004 z" id="path4286" transform="matrix(1, 0, 0, 1, -2.842170943040401e-14, -1.4210854715202004e-14)"/>
  <path style="color:#000000;fill:url(#radialGradient4384);fill-opacity:1;fill-rule:nonzero;stroke:none;stroke-width:1;marker:none;visibility:visible;display:inline;overflow:visible;enable-background:accumulate" d="m 247.56789,132.33028 c -0.19869,0.396 0.009,0.92223 -0.35034,1.27453 -1.89497,2.866 -4.05797,5.58593 -5.93471,8.47168 0.62478,1.40619 1.48422,2.72966 2.21529,4.09368 0.49796,0.76106 0.82205,1.67277 1.44218,2.33332 0.73453,0.11533 1.50569,-0.17 2.25181,-0.18821 2.60393,-0.29685 5.2066,-0.60538 7.81152,-0.89303 0.2925,-0.31468 0.0354,-0.88892 0.13025,-1.29264 0.0129,-3.77831 -0.0167,-7.55656 -0.0276,-11.33484 -0.6565,-0.42521 -1.54364,-0.53562 -2.28888,-0.8397 -1.72027,-0.55264 -3.43246,-1.14735 -5.16197,-1.66103 l -0.0876,0.0362 z" id="path4314" transform="matrix(1, 0, 0, 1, -2.842170943040401e-14, -1.4210854715202004e-14)"/>
  <path style="color:#000000;fill:url(#radialGradient4400);fill-opacity:1;fill-rule:nonzero;stroke:none;stroke-width:1;marker:none;visibility:visible;display:inline;overflow:visible;enable-background:accumulate" d="m 217.46851,136.96343 c -1.46372,0.83367 -3.09504,1.44775 -4.42071,2.47731 -0.23438,0.77052 0.11074,1.65755 0.0605,2.46391 0.25651,3.2478 0.33115,6.5277 0.71264,9.75604 0.46011,0.52723 1.34139,0.10217 1.94331,0.22341 4.19774,-0.14239 8.40039,-0.25931 12.59164,-0.51386 0.30558,-0.7441 0.1005,-1.68879 0.20918,-2.49839 0.0516,-1.89909 0.0821,-3.79866 0.11971,-5.69807 -0.47133,-0.24938 -1.19586,0.005 -1.64869,-0.46556 -2.85201,-1.97652 -5.55234,-4.16756 -8.252,-6.34703 -0.45691,0.0512 -0.88032,0.42731 -1.31553,0.60224 z" id="path4294" transform="matrix(1, 0, 0, 1, -2.842170943040401e-14, -1.4210854715202004e-14)"/>
  <path style="color:#000000;fill:url(#radialGradient4392);fill-opacity:1;fill-rule:nonzero;stroke:none;stroke-width:1;marker:none;visibility:visible;display:inline;overflow:visible;enable-background:accumulate" d="m 239.60361,142.53556 c -3.36814,0.12445 -6.74014,0.27738 -10.09957,0.52854 -0.24994,0.41843 -0.0578,1.0301 -0.14813,1.51307 -0.0325,2.43182 -0.19652,4.87072 -0.0844,7.29989 0.19515,0.55304 0.88654,0.75856 1.27303,1.16871 2.25664,1.73201 4.46893,3.53588 6.80301,5.15862 0.46793,-0.22454 0.66818,-0.84808 1.03593,-1.21412 1.96958,-2.64036 3.93534,-5.28409 5.84712,-7.96429 -0.34713,-0.94714 -1.0081,-1.81885 -1.47518,-2.73717 -0.73269,-1.23223 -1.38228,-2.53606 -2.16719,-3.72305 -0.31987,-0.0694 -0.65928,-0.0264 -0.98459,-0.0302 z" id="path4316" transform="matrix(1, 0, 0, 1, -2.842170943040401e-14, -1.4210854715202004e-14)"/>
  <path style="color:#000000;fill:url(#radialGradient4402);fill-opacity:1;fill-rule:nonzero;stroke:none;stroke-width:1;marker:none;visibility:visible;display:inline;overflow:visible;enable-background:accumulate" d="m 213.72044,122.65052 c -1.11844,0.0421 -2.2693,-0.0508 -3.36753,0.0755 -2.01696,2.90644 -4.18707,5.71983 -6.07061,8.71027 -0.20803,0.43825 0.53515,0.626 0.71578,0.93627 2.46245,2.13241 4.88173,4.32742 7.43575,6.34243 1.22575,-0.4719 2.39698,-1.202 3.59569,-1.78138 0.68446,-0.37019 1.39473,-0.70196 2.05814,-1.10594 0.0767,-0.36868 -0.30678,-0.69599 -0.2235,-1.09935 -0.1126,-3.8736 -0.35567,-7.74468 -0.63424,-11.60968 0.0757,-0.3652 -0.22905,-0.51767 -0.54662,-0.44975 -0.98728,-0.0288 -1.97528,-0.0287 -2.96286,-0.0184 z" id="path4318" transform="matrix(1, 0, 0, 1, -2.842170943040401e-14, -1.4210854715202004e-14)"/>
  <path style="color:#000000;fill:url(#radialGradient4404);fill-opacity:1;fill-rule:nonzero;stroke:none;stroke-width:1;marker:none;visibility:visible;display:inline;overflow:visible;enable-background:accumulate" d="m 219.43769,108.92368 c -3.02835,0.43288 -6.04263,1.0525 -9.03646,1.63998 -0.22184,0.53533 -0.0159,1.21853 -0.0773,1.80606 0.0358,3.13706 0.10554,6.27373 0.12568,9.41098 0.41941,0.29271 1.13891,0.0512 1.67009,0.14009 1.69095,-0.0269 3.39132,0.11884 5.07705,0.02 1.18312,-1.19891 2.23385,-2.57341 3.36239,-3.84182 1.0434,-1.27204 2.1947,-2.47717 3.17334,-3.78722 -0.20425,-0.7685 -0.88842,-1.33518 -1.31077,-1.99635 -0.90036,-1.12027 -1.72493,-2.34679 -2.68497,-3.38868 -0.0974,-0.0234 -0.20053,-0.01 -0.299,-0.003 z" id="path4320" transform="matrix(1, 0, 0, 1, -2.842170943040401e-14, -1.4210854715202004e-14)"/>
  <path style="fill: url('#linearGradient4269'); fill-opacity: 1; stroke: rgb(0, 0, 0); stroke-width: 1; stroke-linecap: butt; stroke-linejoin: miter; stroke-miterlimit: 4; stroke-opacity: 1; stroke-dasharray: none; display: inline;" d="m 217.5761,122.14365 7.27394,-8.52126 13.85242,-1.33216 7.4297,7.93426 1.01803,12.95638 -6.40708,8.91339 -13.11521,0.65732 c 0,0 -9.42583,-6.78458 -9.38676,-7.66719 0.039,-0.88261 -0.66504,-12.94074 -0.66504,-12.94074 z" id="path4285" transform="matrix(1, 0, 0, 1, -2.842170943040401e-14, -1.4210854715202004e-14)"/>
  <path style="fill: url('#linearGradient4245'); fill-opacity: 1; stroke: rgb(0, 0, 0); stroke-width: 1; stroke-linecap: butt; stroke-linejoin: miter; stroke-miterlimit: 4; stroke-opacity: 1; stroke-dasharray: none; display: inline;" d="m 221.41766,123.33342 0,10.77835 6.7133,5.30081 10.42331,-0.88347 c 0,0 5.29999,-6.36097 5.47665,-7.42114 0.17667,-1.06016 -0.70667,-10.24825 -0.70667,-10.24825 l -6.35997,-5.12413 -10.59997,0.70677 z" id="path4305" transform="matrix(1, 0, 0, 1, -2.842170943040401e-14, -1.4210854715202004e-14)"/>
  <path style="fill: none; stroke: rgb(0, 0, 0); stroke-width: 1; stroke-linecap: butt; stroke-linejoin: miter; stroke-miterlimit: 4; stroke-opacity: 1; stroke-dasharray: none; display: inline;" d="m 210.11104,122.44996 c 0,-0.70678 -0.17667,-12.19188 -0.17667,-12.19188 l 9.53996,-1.76695 7.77332,-10.955031 11.48329,7.774541 13.07329,-0.70677 0.70666,12.36858 9.00998,9.01139 -6.00666,7.77454 0,13.95882 -10.77663,1.23686 -7.24331,9.89486 -9.18664,-7.06776 -14.83995,0.53009 -0.88332,-12.89866 -9.00998,-7.77454 z" id="path4287" transform="matrix(1, 0, 0, 1, -2.842170943040401e-14, -1.4210854715202004e-14)"/>
  <path style="fill: none; stroke: rgb(0, 0, 0); stroke-width: 1; stroke-linecap: butt; stroke-linejoin: miter; stroke-miterlimit: 4; stroke-opacity: 1; stroke-dasharray: none; display: inline;" d="m 219.651,108.13775 4.76998,6.1843" id="path4289" transform="matrix(1, 0, 0, 1, -2.842170943040401e-14, -1.4210854715202004e-14)"/>
  <path style="fill: none; stroke: rgb(0, 0, 0); stroke-width: 1; stroke-linecap: butt; stroke-linejoin: miter; stroke-miterlimit: 4; stroke-opacity: 1; stroke-dasharray: none; display: inline;" d="m 238.55427,105.48733 c -0.52999,0.70679 -0.35332,7.24446 -0.35332,7.24446" id="path4291" transform="matrix(1, 0, 0, 1, -2.842170943040401e-14, -1.4210854715202004e-14)"/>
  <path style="fill: none; stroke: rgb(0, 0, 0); stroke-width: 1; stroke-linecap: butt; stroke-linejoin: miter; stroke-miterlimit: 4; stroke-opacity: 1; stroke-dasharray: none; display: inline;" d="m 252.33423,116.79575 -5.82999,3.35719" id="path4293" transform="matrix(1, 0, 0, 1, -2.842170943040401e-14, -1.4210854715202004e-14)"/>
  <path style="fill: none; stroke: rgb(0, 0, 0); stroke-width: 1; stroke-linecap: butt; stroke-linejoin: miter; stroke-miterlimit: 4; stroke-opacity: 1; stroke-dasharray: none; display: inline;" d="m 247.38758,131.81474 8.12663,2.65042" id="path4295" transform="matrix(1, 0, 0, 1, -2.842170943040401e-14, -1.4210854715202004e-14)"/>
  <path style="fill: none; stroke: rgb(0, 0, 0); stroke-width: 1; stroke-linecap: butt; stroke-linejoin: miter; stroke-miterlimit: 4; stroke-opacity: 1; stroke-dasharray: none; display: inline;" d="m 240.76779,142.07959 4.03319,7.08141" id="path4297" transform="matrix(1, 0, 0, 1, -2.842170943040401e-14, -1.4210854715202004e-14)"/>
  <path style="fill: none; stroke: rgb(0, 0, 0); stroke-width: 1; stroke-linecap: butt; stroke-linejoin: miter; stroke-miterlimit: 4; stroke-opacity: 1; stroke-dasharray: none; display: inline;" d="m 229.01431,143.12316 -0.17667,9.54149" id="path4299" transform="matrix(1, 0, 0, 1, -2.842170943040401e-14, -1.4210854715202004e-14)"/>
  <path style="fill: none; stroke: rgb(0, 0, 0); stroke-width: 1; stroke-linecap: butt; stroke-linejoin: miter; stroke-miterlimit: 4; stroke-opacity: 1; stroke-dasharray: none; display: inline;" d="m 212.40769,139.2359 c 0.70667,-0.3534 6.35998,-3.35719 6.35998,-3.35719" id="path4301" transform="matrix(1, 0, 0, 1, -2.842170943040401e-14, -1.4210854715202004e-14)"/>
  <path style="fill: none; stroke: rgb(0, 0, 0); stroke-width: 1; stroke-linecap: butt; stroke-linejoin: miter; stroke-miterlimit: 4; stroke-opacity: 1; stroke-dasharray: none; display: inline;" d="m 210.11104,122.27327 7.5665,0.0469" id="path4303" transform="matrix(1, 0, 0, 1, -2.842170943040401e-14, -1.4210854715202004e-14)"/>
  <path style="fill: rgb(255, 206, 204); fill-opacity: 1; stroke: none; filter: url('#filter4265'); display: inline;" d="m 230.57737,137.98007 9.02081,-19.13505 1.16177,2.80192 -7.24398,16.26479 c -0.47081,-0.0677 -2.48936,0.22465 -2.9386,0.0683 z" id="path4251" transform="matrix(1, 0, 0, 1, -2.842170943040401e-14, -1.4210854715202004e-14)"/>
</svg>